<svg id="Camada_1" data-name="Camada 1" xmlns="http://www.w3.org/2000/svg" xmlns:xlink="http://www.w3.org/1999/xlink" viewBox="0 0 594.18 200.45"><defs><style>.cls-1{fill:#fff;}.cls-2{fill:#616160;}.cls-3{fill:url(#Gradiente_sem_nome_22);}</style><linearGradient id="Gradiente_sem_nome_22" x1="262.39" y1="193.64" x2="478" y2="-21.97" gradientUnits="userSpaceOnUse"><stop offset="0" stop-color="#e8501d"/><stop offset="0.29" stop-color="#e8531c"/><stop offset="0.52" stop-color="#ea5d18"/><stop offset="0.73" stop-color="#ed6e11"/><stop offset="0.92" stop-color="#f08508"/><stop offset="1" stop-color="#f29104"/></linearGradient></defs><path class="cls-1" d="M159.48,144.68a9.72,9.72,0,0,0-.09-1.31c-.15-2.2-.87-2-1.21-3.44-.42-1.79-.27-3.57-.9-5.3l-.61-1.87a27.79,27.79,0,0,0-4.17-7.56l-1.82-2.34-2.49-2.42a18.66,18.66,0,0,1-2.91-3.66l-4.57-7.52-.81-1.64a21.65,21.65,0,0,0-6-7.37l-3.14-2.45a13.36,13.36,0,0,0-4-2.13l-3.62-1.2s-4.77-1-5.62-1A14.43,14.43,0,0,0,118.86,97l.37-.33a2.06,2.06,0,0,1,1.37-.53c1.75,0,3.5,1,5.07,1.79l2.44,1.3-4.83,1.28,4.21.62a13.91,13.91,0,0,1,4.73,1.62c.14,5,.8,10.32,4.7,13.41l1.8,1.43a19.26,19.26,0,0,1-.09,8.38l-.57,2.43a1.79,1.79,0,0,1-.77,1.09c-1.18.74-3.84,2.39-5.82,3.44-1.13.41-2.27.76-3.41,1.12l-.83.45-.09-.17-.82.26,0,0-4,2.44-4.22-.43a9,9,0,0,0-4.44.66l-20.35,9.23-.36,0a50.6,50.6,0,0,0-8.79-.23l-1.75.11a19.29,19.29,0,0,1-4.56.84c-.52.06-1,.09-1.55.12-1.41.1-2.8.3-4.19.51l-2,.31,0,.08-.54,1a9,9,0,0,1-5.3,4.26l-5.54.31,4.75,1.3L80,154.75l7.29-2,13.49-5,14.93-7-12.94,7.85-16.71,7.12a8.75,8.75,0,0,1-.86.3l-7.29,2.08a7.34,7.34,0,0,1-3.16.19l-10.68-1.7a27.72,27.72,0,0,1-9.53-3.38l-8.8-4.18-3.38-3.95a.44.44,0,0,1,.56-.67l14.3,8.28L50.44,145a.71.71,0,0,0-.68-.24h0a6,6,0,0,1-4.83-1.22l-7.59-6-.62-.85a12.84,12.84,0,0,1-2.47-7.58V128l-1-6.63.45-4.2,1,2.09,2.49,3.49a7.66,7.66,0,0,0,3.9,2.86l.15.05L37,118.82c-1-1.64-1.41-3.6-2.18-5.5l.18-4a14.16,14.16,0,0,1,3.47-8.71,19.35,19.35,0,0,1,2.87-2.83l5.55-3.08a1.91,1.91,0,0,1,1.31-.34l1.25.13a7.61,7.61,0,0,0,2.64-.22c1.1-.27,1.77,0,3.34.16a3.32,3.32,0,0,1,1.76.78l2,1.53c.7-2.14-1-3.5-1.48-4.6-.08-.18.12-.42,0-.6l-1.23.57-2.37.15a25,25,0,0,0-11,3.34L38,99.08a13.32,13.32,0,0,0-4.5,5.26l-1.47,3.09a34.77,34.77,0,0,0-1.49,9.33,12.46,12.46,0,0,0,.53,4v0a41.26,41.26,0,0,1,1.47,10h0a15.76,15.76,0,0,0,2.63,8l1.35,1.83,3.75,6.89h0a7.43,7.43,0,0,0,2.44,2.92c.73.51,1.43,1.07,2.13,1.63l-.07-.18L48.87,153h0a7.52,7.52,0,0,0,4.18,3.16l15,4.07c2,.6,4.7,1.56,6.76,1.51H75a19.18,19.18,0,0,0,6.36-1.25l13.84-5.26,32.91,5a8.75,8.75,0,0,1-5.13,1.64l-17.12-1.51-4.8.15c10.31,2.27,14.48,2.19,18.58,2.7,1.21,0,6.52,2.22,8.35,1.81l.38-1.75a1.15,1.15,0,0,1,1-.9l5.76-.72,7.5-1.07,10.07-4.07,1.72-1.61,2.56-.85c1.65-.54,2.59-3.21,2.62-5Zm-79.67,8.4H73.06L76.12,151l11.2-.6Zm58.69-40.8v-3.52l2.87,5c1.18,2.08,2.22,4.84,4,5.92l3.27,4.06-2.4-1.1A7.5,7.5,0,0,1,143.9,121l-3.34-3.54A7.55,7.55,0,0,1,138.5,112.28Zm9.61,44c-.83,1.43-10.41,2-10.41,2a97.07,97.07,0,0,0,12-4.48S148.93,154.83,148.11,156.26Zm4.4-4.63-.33-.1a9.51,9.51,0,0,0-7.56,1.05l-1.23.75a14.34,14.34,0,0,1-5.1,1.92l-6.57,1.14a20,20,0,0,1-5.89,0l-25.19-3.66,7.9-5.2,8.63-6.41,10.72-5.64,7.9-3.53a11.7,11.7,0,0,1,3.13-.9l1.28-.19c2.63-.37,1.36-.11,7.59,1.49l1.77,1-1-.11a28.09,28.09,0,0,0-11.66,1.14l-2,.63,7.85,1.22,7.29,2.85a8,8,0,0,1,3.73,3,3,3,0,0,1,.44,2.46l.22,1.29a2.9,2.9,0,0,1-.21,1.64Zm5.48-2.47a3.1,3.1,0,0,1-2.6,2.92l-1.08.17.37-.93a29.26,29.26,0,0,0,1.93-8.25l0-.37-.14-.27a29.54,29.54,0,0,0-5.22-7.08l-.28-.28.1-.44a7.82,7.82,0,0,0-.66-5.31l.33-3.21,2.06,3a20.13,20.13,0,0,1,2.11,3.83l.47,1.1a22.78,22.78,0,0,1,1.67,6.61l1.1,3.87Z"/><path class="cls-2" d="M89.4,90.36s-1.46.52-2.19-1.77.53-1.66.53-1.66l1-1.46Z"/><path class="cls-1" d="M77.83,123.28a6.78,6.78,0,0,0-3.38,2s.41-3.49,1.69-3.85"/><path class="cls-1" d="M70.16,44.47a46.12,46.12,0,0,1,17.16-1.35l-.23-.69s-9.25-2.07-16,1l-.65.22Z"/><path class="cls-1" d="M63.89,51.74s-6.11-1.87-7.44-5.54c-.17-2.17-.76-4.33,9-5.77a1.57,1.57,0,0,0,1-.85c0-.11-4.55,1-6.42,1.12-1.94.33-4.51,2.68-4.49,3.63a8.64,8.64,0,0,0,2.34,5l6.51,3.52-.24-1.12Z"/><path class="cls-1" d="M69.67,61.58l1,.93.73.21h0A1.93,1.93,0,0,0,73,63.4h.18A2,2,0,0,0,74.21,63l.75-.58,1.59.06a2.09,2.09,0,0,0,1.64-.69l.94-1,1.32-.27,3.28,3.63a8.8,8.8,0,0,1,1.1,1.54L85.58,67l-.11-.63A8.43,8.43,0,0,0,83.28,62l-.46-.49A17.92,17.92,0,0,0,78.4,58l-.75-.41.16.66,1.54,1.38-1.16.91a.67.67,0,0,1-.47.15l-2.4-.11a1.2,1.2,0,0,0-.9.33l-.87.82A.76.76,0,0,1,73,62l-1.07,0a.75.75,0,0,1-.58-.29l-.49-.88-.57-.33L70,60l-2.33,3.11a3.86,3.86,0,0,0-.76,2l0,.34a4,4,0,0,0,.18,1.45L68,69.7a6.63,6.63,0,0,0,0-2.51l0-.26a2.85,2.85,0,0,1-.16-1.26l-.17-.45a3.86,3.86,0,0,1,.67-1.81l1.17-1.32Z"/><path class="cls-1" d="M71.28,58l.29-2.08-.49,1.41a2.7,2.7,0,0,1-.54,1l-.39,1,.6-.52A1.12,1.12,0,0,0,71.28,58Z"/><path class="cls-1" d="M75.64,58.61l.44-.57A.83.83,0,0,0,76,57a1.64,1.64,0,0,1-.29-.37,5.26,5.26,0,0,1-.14-1.37V52.88l-1,4h0a2,2,0,0,1,1,1.58Z"/><polygon class="cls-1" points="69.57 54.16 67.77 55.11 69.88 54.85 69.57 54.16"/><path class="cls-1" d="M78.41,51.13a5.34,5.34,0,0,1,1.33-1.47l.57-.43a3.79,3.79,0,0,1,1.93-.76l3.23-.32a3.08,3.08,0,0,1,2,.43s1.24.79,1.07.93c.14,0,.2-.43.16-.58-.22-.73-2.31-2-2.31-2a.87.87,0,0,0-.71-.21l-4.61.73L78.39,49l-.46.16a.83.83,0,0,0-.55.88l.27,2.35Z"/><path class="cls-1" d="M83.9,51h0a2.36,2.36,0,0,0-1.55-.48l-1.3,0a1.5,1.5,0,0,0-.94.39l-.18.16a1.91,1.91,0,0,0-.62,1.54h0l.57.18.14-.36.48-.08.23.38,3.4-.58s1.28-.08,1.5.35S85.45,54,85.45,54l.86-.75,1.43-1.77-1.95.13Z"/><path class="cls-1" d="M82.49,54.22l-1.07.09-.65.17,2.38.42a7.34,7.34,0,0,0,2.43,0l-1.88-.57A3.09,3.09,0,0,0,82.49,54.22Z"/><path class="cls-1" d="M72.06,66.54l.45-.09a2.07,2.07,0,0,1,.35,0l4.17.26h.33a15.18,15.18,0,0,1,2.21-.07,1.87,1.87,0,0,1,1.12.51l.61.57-.36.63L79.87,69.7,82.21,68a3.2,3.2,0,0,0,.27-.25,1.88,1.88,0,0,0,.22-2.22L82.41,65l-.87.69-4.08.11h-.24L71.7,66h0l-2.89.4.93.75a.23.23,0,0,1,.09.19l0,1.58.32.47.42-.47,0-.44A1.86,1.86,0,0,1,72.06,66.54Z"/><path class="cls-1" d="M74.8,74a1.3,1.3,0,0,0,.69-.18l.76-.46a1.24,1.24,0,0,0,.59-.88l.45-1.22L76,71.47a10.27,10.27,0,0,1-2.35.06L73,71.46a1.25,1.25,0,0,0-1.09,1.75A1.24,1.24,0,0,0,73,74Z"/><path class="cls-1" d="M103.8,62l.32-.59c.21-.39-.3-.75-.51-1.13l-.08-1.18a.55.55,0,0,1,0-.4l1.16-1.08.66-2.09L104,56.9l-1.58.38a1.06,1.06,0,0,0-.41,1.13l.44,1.67A2.11,2.11,0,0,1,102,62l-1.16,1.29,1.69-.48Z"/><path class="cls-1" d="M131,150.29l-12.56.15,9.18,1.1,4.21.59a12.59,12.59,0,0,0,9.5-2.57l.22-1A35.32,35.32,0,0,1,131,150.29Z"/><path class="cls-1" d="M62.83,50.27a13.91,13.91,0,0,1-.66-2.2.26.26,0,0,1,0-.2c-.34-.49-.53-1.25.45-2.14,3.68-3.28,22.94-5.3,38.1-.06,5.3,1.79,7.7,4.16,8.07,5.21.21.6-.79,1.07-1,1.49.11.29-.5.39-.22.51,0,0-.07,1,.1.54,1.08-.53,3.28-2,3.61-3.15.45-1.54-1.26-2.72-1.59-2.93a.14.14,0,0,1-.06-.1l-.34-4.43c-.13-1.57.2-3.15-.27-4.65l-4.2-11.29,0-.05L102.57,25h0l-5.28-2.41a.11.11,0,0,0-.08,0l-2.7.53h0l-4.53,1.34h0l-4.63,0a.14.14,0,0,1-.1-.23l2.53-2.66a.13.13,0,0,1,.1,0l7.91,0h.06l6.06,2.69A.13.13,0,0,0,102,24l-3.78-2.59h0L95.53,20a6.52,6.52,0,0,0-2.83-.78l-1,0h0l-3-1.19a4.65,4.65,0,0,0-2.76-.19l-.81.19H85L83,17.46a4.59,4.59,0,0,0-2.44.05l-4.39,1.3h0l-5,1.91a2,2,0,0,0-1,.76L67.9,25.05a3,3,0,0,0-.41.87l-.38,1.32a.21.21,0,0,1,0,.06l-1.24,1.13,0,.05L65.15,30a56.88,56.88,0,0,0-3.29,10.27l0,.07,0,.24L63,39.91a.13.13,0,0,0,.06-.07L66,32.05a.13.13,0,0,1,.25.07l-.63,5a.13.13,0,0,0,.25.06l1.28-3.42a11.93,11.93,0,0,0,.72-3.49l.07-1.44a8.53,8.53,0,0,1,1.15-3.9L70.16,23a3.61,3.61,0,0,1,1.75-1.5,7.13,7.13,0,0,0,2-1.2l.05,0L77,20.23l.05,0,1-.44a17.32,17.32,0,0,1,5.65-1.54h0a.13.13,0,0,1,.09.24L82,19.8a.13.13,0,0,0,.07.24l2.16.05h.06l2-1.11.08,0,1.88.29a.13.13,0,0,1,0,.25l-2,.91a.11.11,0,0,0-.07.09l-.18.76a.05.05,0,0,1,0,.05l-2.76,3.09a.15.15,0,0,0,0,.11L83.78,28a.53.53,0,0,1,.4-.05c.87.24,7.58-.35,12,.47,4.13.75,6.27,2.72,7.82,3.28a.14.14,0,0,0,.16-.2l-1.81-3.08,0,0-5.63-3.17-.07,0-3.8.08a.13.13,0,0,1,0-.25l3.59-1.13h.1L101.72,26a2.38,2.38,0,0,1,1.18,1.22l1.42,3.3v0s.94,2.78,1.7,5.08a14.9,14.9,0,0,1,.71,6.11l-.35,3.82a.13.13,0,0,1-.19.13c-1.78-.94-12.44-5.59-30.35-5.16a71.57,71.57,0,0,0-15.33,2c-1.79.32-2.78.82-3,3S59.76,48.9,62.83,50.27Z"/><path class="cls-1" d="M105.15,36.16a2.55,2.55,0,0,0-1.09-1.52c-1.77-1.19-4.38-4.45-8.39-5.19C91.46,28.67,85,29.31,84,29.09l.29,1.73a2.07,2.07,0,0,0,1.92,1.74L90,32.8a6.21,6.21,0,0,1,3.38,1.27L95,35.33c3.6,1,7.24,2,10.76,3.24Z"/><path class="cls-1" d="M105,40.07A62.1,62.1,0,0,1,99.1,37.4c-1.18-.33-3.55-.17-4.74-.51a1,1,0,0,1-.33-.17l-3.25-.83L86.06,35l1.22,2.36a4.38,4.38,0,0,0,2.85,2.24l3.49.86.6,0a14.91,14.91,0,0,1,7.8,1.81L105,43.9a3.44,3.44,0,0,0,.3-2.78l-.28-.89A.76.76,0,0,1,105,40.07Z"/><path class="cls-1" d="M122.41,163.8a7.76,7.76,0,0,0-3-.19L102,166.37l17.13,1.73A5.8,5.8,0,0,1,123.4,175l-.85,3.84h3.11l2.42-14.53c-1,0-1.91,0-2.86-.12A16.91,16.91,0,0,1,122.41,163.8Z"/><path class="cls-1" d="M49.12,162.09l-2.5-5.9-1.15-3.94c-1.27-1-1.93-.95-3.53-2.55l1.34,6.66,4.51,22.46H62.58L52.31,174a10.09,10.09,0,0,1-3.87-5.89,6.49,6.49,0,0,1-.16-1.28c4.63,1.71,18.21,6.25,31.64,5.74,0,0-21.62-3-30.62-10Z"/><path class="cls-1" d="M111.22,128.46a5.57,5.57,0,0,1,2.22-.27l3.29.28a8.27,8.27,0,0,1,3.85,1.34l2.43,1a2.55,2.55,0,0,1,1.17.93l2.14,2.88c.34-.11,1.42.11,1.76,0l-3.85-5.91a2.53,2.53,0,0,0-2-1.37h0l2.15-6.08.86-2.47a6.8,6.8,0,0,0-.53-5.64l-.31-.56a41.19,41.19,0,0,1-4.6-12.16l-.33-1.61a9.2,9.2,0,0,0-.79-2.28,14.68,14.68,0,0,1-.72-1.8c-.14-.41-.28-.83-.41-1.25l-1-.18-3.13-.74c-4.84-1.26-7-2.49-9.51-4.67-.18,1.05-1.06,5.87-1.35,6.06v7.2l.28.42-.19.59a5.29,5.29,0,0,1-4.21,3.56l-4.55.72-3.11.1a10.32,10.32,0,0,1-6.23-1.82L72.38,96.37a1.55,1.55,0,0,1-.5-.55L71,94.23a6.22,6.22,0,0,0-3-2.67l-2.48-1,0-.3,3.81-1.67a1.57,1.57,0,0,1,1.51.13l2.8,1.9-1.32-2.23a4.43,4.43,0,0,1-.57-2.91l.37-2.55,2.19.52a24.3,24.3,0,0,1,9.93,4.93l2.91,2.4-2.75-1.55a36.88,36.88,0,0,0-4.85-1.76,32.74,32.74,0,0,0-4.3-1.78l-2.36-.55,4,2.17L79.71,89A27.82,27.82,0,0,1,88,93.59l2.75,2.22.46-.91c1.71-3.38,1.94-7.17,2.67-10.89l1.63-3,1,14.65L97.26,82l-.11-8.3-.79,1.54A7.2,7.2,0,0,1,91.62,79l-6,1.42,8-5.38a3.18,3.18,0,0,0,.83-2.3l-.26-5.18.22-3.2,2.28-4.12,2.17,3.05,2-7.2c.06-.31,0-1.36.25-1.3l2.14.39.68-1.2,1.28.25a1.36,1.36,0,0,1,1.12,1.21l.18,2a5.74,5.74,0,0,1-.71,3.32l-2,3.54-1.22,1.86a1.35,1.35,0,0,1-1.74.47L100,66.1a1,1,0,0,0-1.45.67l-.47,2,1.75-.45a.65.65,0,0,1,.79.79L100,71.16l.88,8.41,1.6,14.59h0c.16-.26.16.44.26.16a50.41,50.41,0,0,0,.85-5.11l.24-1.33h0l-.12-.06-2.21-16.54.18-2.21,1.08-1a6.79,6.79,0,0,0,1.4-1.75l2.23-4,.85-1.64a8.9,8.9,0,0,0,0-7.37A5.79,5.79,0,0,0,107,52s.43-.83.44-.88c-.64-1.18-2.88-2.78-7.51-4.68a32.76,32.76,0,0,0-4.41-1.38c-14.24-3.21-27.22-.28-27.25-.44-2,.52-4.35,1.24-5.13,1.93a1.57,1.57,0,0,0-.58,1.15.27.27,0,0,1,.17.19c.37,1.28.77,2.55,1.14,3.83l.18.07.1.51L63.67,59a16.55,16.55,0,0,0,.17,3.85l1.37,8.6a9.38,9.38,0,0,0,.88,2.73l1,2a10.4,10.4,0,0,0,1.09,3.71,4.91,4.91,0,0,0,2.08,2.08l1.61.28s-.85.64-1.32,1a1,1,0,0,0-.36.62l-.26,1.47a2,2,0,0,1-1.16,1.51l-4.18,1.74L63,89.11l-5.56,2.55c.08.16.15.32.22.48a18.08,18.08,0,0,1,1.47,4.38h0c-.14,0-.28-.07-.42-.09l2.2,3.2A43.39,43.39,0,0,1,65,107l1.09,2.53-3.92-4.09a7.54,7.54,0,0,0-2.59-1.76l-.79-.33,3.43,5.47a8.69,8.69,0,0,1,2.87,4l.89,2.56,2.32,5.31c.3,1.31-1,2.76-1,2.76l3,2.87,1.77-.88h0a28.54,28.54,0,0,1,9.22.39l2.6.54a29,29,0,0,1,4.76,1.42l3,1.18,17,.34ZM69.66,79.54a4.56,4.56,0,0,1-1-2.92v-.85A8.63,8.63,0,0,0,67.77,72l-.14,1.84-1.28-2.12-.35-4-1-4.73.15-5.52.63-3.68v0l1.3.33L67,52.64l1.88.22,1.85,0-.06.95L72,53.05l-.16,1.64.84-1.43.3-1.94a1.74,1.74,0,0,0-.39-1.4l-1.17-1.4-1.48-.74-2.63-.32a4.64,4.64,0,0,0-1.7.11l-1.37.35c.92-.82,4.71-2,11-2.6,8.5-.78,14.17.24,16,.71.44.11.87.68,1,1.89l.31,1.64,2.12-.14-.78-1.84.23-1.21,2.06.93.94,1.19a3.67,3.67,0,0,1,.8,2.3c0,1.2,0,2.82,0,2.82l-.42.11c-.65.16-1.33-.58-1.79-.09l-3.47,3.71-1.3,1,5.82-2.06a7.24,7.24,0,0,1-3.68,3.9l-1.48.69L92,64a2.94,2.94,0,0,1-.76,2.37h0A4.47,4.47,0,0,0,90.05,69l-.13,1.4a3.41,3.41,0,0,1-1.19,2.72l-.6.57,1.24-8.1L88,68.23c-1.06,2-.63,4.8-1.46,6.5h0L84.1,77l.61-3.13-.69.76a13.58,13.58,0,0,0-2.38,3.57l-.15.33a4.86,4.86,0,0,1-4,2.81L75,81.52,74.21,81H72.64A3.85,3.85,0,0,1,69.66,79.54ZM65.1,49.22a.35.35,0,0,1,.29-.37l1.42-.27,1.65,1.14a1.71,1.71,0,0,0,.81.31l2,.24.68.79,0,.85-1-.11-.34-.26a3.6,3.6,0,0,0-2.14-.74h-.8a.58.58,0,0,0-.41.17l-.95,1-.56-.06-.58-1.35Zm53.85,78c1,.06.07-.09,1,0Zm-6.09-33,1.8.64A4.07,4.07,0,0,1,117,96.94l1.72,3.74-5.2-4.09-6.42-3.84ZM91.4,127.22,81,124.35l-8.4-1.44-5.75-9.07,1.45-3.1a2,2,0,0,0-.11-1.9l-7.49-11.9v-.06a3.18,3.18,0,0,0-1.92-3l4.42-1.33,1.89-.59h.06a6.31,6.31,0,0,1,3.69,2.75q.21.33.42.63a.71.71,0,0,1-.36,1.11l-5,1.57c.1.16,4.35-.58,6.09-.8a1.58,1.58,0,0,1,1.22.37L79.88,105l3.55,3c2,1.46,4.78.56,7.26.34l9.24-.83a5.31,5.31,0,0,0,4.78-4.54l.61-4.34h0l4.44-.9-3.1-1a1.27,1.27,0,0,1-.86-1.39l.31-2.22,6.8,4.28c.08,1-5.82,6.46-7.43,8.69a.63.63,0,0,0,.46,1l5.29.39a2.32,2.32,0,0,1,1.75,1l3.09,4.52-.44-7.39-4.07.44a1.16,1.16,0,0,1-.64-2l4.24-3.86.22,2.91a4.29,4.29,0,0,0,1.2,2.13c1.49,1.49,5.4,6.12,3.34,7.79l2.47,1.24c.63,1.68-.78,2.85-1.47,4.5a12.39,12.39,0,0,0-.68,2l-1.52,6.38-.71-.06a.31.31,0,0,1-.28-.25l-4.1-.17Z"/><path class="cls-1" d="M98.57,89.07l-.17,3.7a10,10,0,0,0,1.65,6l1,1.46s0-3.31.07-5.27a5.22,5.22,0,0,0-.7-2.73Z"/><path class="cls-3" d="M203.7,101v6.51H180.2a10.58,10.58,0,0,1-4-.87,10.21,10.21,0,0,1-1.94-1.17,8.14,8.14,0,0,1-2.78-4.09,10,10,0,0,1-.43-3h0V80.68a9.71,9.71,0,0,1,.21-1.93,10.54,10.54,0,0,1,.67-2.06,9,9,0,0,1,1.18-2,8.51,8.51,0,0,1,1.74-1.64A8.94,8.94,0,0,1,177.19,72a10,10,0,0,1,3-.42h23.5v6.51H180.2a2.65,2.65,0,0,0-2,.68,2.7,2.7,0,0,0-.67,2h0V98.32A2.4,2.4,0,0,0,180.2,101h23.5ZM247,86.07v6.86a15.84,15.84,0,0,1-1.13,6,14,14,0,0,1-7.89,7.88,15.7,15.7,0,0,1-6,1.11h-8.82a15.92,15.92,0,0,1-6-1.11,14.08,14.08,0,0,1-7.9-7.88,15.66,15.66,0,0,1-1.14-6h0V86.07a15.72,15.72,0,0,1,1.14-6,14.36,14.36,0,0,1,3.14-4.76,14.6,14.6,0,0,1,4.76-3.11,15.54,15.54,0,0,1,6-1.13h8.82a15.34,15.34,0,0,1,6,1.13,14.71,14.71,0,0,1,4.76,3.11A14.34,14.34,0,0,1,245.91,80a15.9,15.9,0,0,1,1.13,6Zm-6.52,6.86V86.07a9.47,9.47,0,0,0-.62-3.49,7.47,7.47,0,0,0-1.73-2.68,7.7,7.7,0,0,0-2.68-1.73,9.32,9.32,0,0,0-3.44-.62h-8.82a9.38,9.38,0,0,0-3.46.62,8,8,0,0,0-2.7,1.73,7.49,7.49,0,0,0-1.74,2.68,9.47,9.47,0,0,0-.62,3.49h0v6.86a9.49,9.49,0,0,0,.62,3.5,7.58,7.58,0,0,0,1.74,2.68,7.66,7.66,0,0,0,2.7,1.72,9.38,9.38,0,0,0,3.46.62H232a9.44,9.44,0,0,0,3.47-.62,7.55,7.55,0,0,0,4.43-4.4,9.49,9.49,0,0,0,.62-3.5Zm48.84-21.39v33.14a3.16,3.16,0,0,1-.26,1.31,3.46,3.46,0,0,1-.7,1,3.26,3.26,0,0,1-1,.69,3.41,3.41,0,0,1-1.27.24h0a3.33,3.33,0,0,1-1.22-.23,2.67,2.67,0,0,1-1.09-.72h0L260,82.16v25.3h-6.51V74.32A3.12,3.12,0,0,1,254,72.5a3.42,3.42,0,0,1,1.43-1.21h0a3.26,3.26,0,0,1,1.9-.19,3.17,3.17,0,0,1,1.68.91h0l23.81,24.83V71.54ZM329.1,101v6.51H305.6a9.16,9.16,0,0,1-1.94-.22,9.37,9.37,0,0,1-2.05-.65,10.29,10.29,0,0,1-1.95-1.17,8,8,0,0,1-1.64-1.73,8.77,8.77,0,0,1-1.14-2.36,9.68,9.68,0,0,1-.43-3h0V80.68a9.77,9.77,0,0,1,.22-1.93,9.85,9.85,0,0,1,1.84-4,8.26,8.26,0,0,1,1.74-1.64A9,9,0,0,1,302.6,72a9.88,9.88,0,0,1,3-.42h23.5v6.51H305.6a2.61,2.61,0,0,0-2,.68,2.7,2.7,0,0,0-.68,2h0V98.32A2.41,2.41,0,0,0,305.6,101h23.5Zm35.69-14.73v6.56H344.23V86.22ZM367.73,101v6.51h-23.5a10.68,10.68,0,0,1-3-.47,8.67,8.67,0,0,1-5.25-4.4,9.11,9.11,0,0,1-.91-4.27h0V74.82a3.43,3.43,0,0,1,.24-1.28,3.64,3.64,0,0,1,.7-1.05,3,3,0,0,1,1-.7,3.27,3.27,0,0,1,1.3-.25h29.34v6.51h-26.1V98.32a2.68,2.68,0,0,0,.66,2,2.73,2.73,0,0,0,2,.68h23.45Zm42.08-17.33v2.95a13.55,13.55,0,0,1-.55,4,11.66,11.66,0,0,1-1.49,3.09,10.52,10.52,0,0,1-2.17,2.29A12.91,12.91,0,0,1,403,97.5a12.74,12.74,0,0,1-2.71.87,13.28,13.28,0,0,1-2.56.27H383v-6.5h14.74a7.49,7.49,0,0,0,2.25-.52,5.69,5.69,0,0,0,1.75-1.11,5,5,0,0,0,1.13-1.7,6,6,0,0,0,.39-2.24h0V83.62a8.79,8.79,0,0,0-.52-2.26,5.51,5.51,0,0,0-1.09-1.76A5,5,0,0,0,400,78.46a5.81,5.81,0,0,0-2.24-.41H383.08a2.72,2.72,0,0,0-2,.68,2.64,2.64,0,0,0-.68,2h0v26.78h-6.51V80.68a9.15,9.15,0,0,1,.92-4.26,8.72,8.72,0,0,1,2.27-2.83,9.19,9.19,0,0,1,3-1.57,10.34,10.34,0,0,1,2.95-.48h14.74a13.13,13.13,0,0,1,4,.56,11.68,11.68,0,0,1,3.09,1.5,10.49,10.49,0,0,1,2.28,2.17,14.2,14.2,0,0,1,1.55,2.56,12.86,12.86,0,0,1,.9,2.71,13.48,13.48,0,0,1,.27,2.58Zm38-12.08v6.51H433.49v29.41H427V78.05H412.59V71.54Zm40.63,15v5.86a15.66,15.66,0,0,1-1.14,6,14,14,0,0,1-7.9,7.86,15.54,15.54,0,0,1-6,1.13H455.85a3.27,3.27,0,0,1-1.3-.25,3.13,3.13,0,0,1-1-.68,3.08,3.08,0,0,1-.68-1,3.33,3.33,0,0,1-.26-1.31h0V74.82a3.25,3.25,0,0,1,.26-1.28,3.22,3.22,0,0,1,.68-1.05,3,3,0,0,1,1-.7,3.27,3.27,0,0,1,1.3-.25h17.59a15.54,15.54,0,0,1,6,1.13,14,14,0,0,1,7.9,7.87,15.72,15.72,0,0,1,1.14,6ZM482,92.43V86.57a9.49,9.49,0,0,0-.61-3.48,7.51,7.51,0,0,0-1.75-2.69,7.74,7.74,0,0,0-2.69-1.73,9.38,9.38,0,0,0-3.46-.62H459.09V101h14.35a9.38,9.38,0,0,0,3.46-.62,7.72,7.72,0,0,0,2.69-1.72,7.56,7.56,0,0,0,1.75-2.68,9.49,9.49,0,0,0,.61-3.5Zm48.81-13v4.17a13.58,13.58,0,0,1-.55,4,11.37,11.37,0,0,1-1.49,3.09A11,11,0,0,1,526.55,93,13.29,13.29,0,0,1,524,94.55a12,12,0,0,1-2.7.88,12.6,12.6,0,0,1-2.57.28h0l13.61,11.75H522.24L508.66,95.71H504V89.2H518.7a7.74,7.74,0,0,0,2.24-.51,5.58,5.58,0,0,0,1.76-1.12,4.76,4.76,0,0,0,1.14-1.69,5.92,5.92,0,0,0,.4-2.26h0V79.5a2,2,0,0,0-.14-.83,1,1,0,0,0-.35-.43,1.06,1.06,0,0,0-.45-.16l-.43,0h-21.5v29.41h-6.51V74.82a3.25,3.25,0,0,1,.93-2.33,3.13,3.13,0,0,1,1-.7,3.32,3.32,0,0,1,1.31-.25h24.73a7.85,7.85,0,0,1,3.68.79,7.38,7.38,0,0,1,2.44,2,8.12,8.12,0,0,1,1.36,2.56,9.32,9.32,0,0,1,.41,2.58Zm40.74-7.91v12a13,13,0,0,1-.55,4,10.83,10.83,0,0,1-1.5,3.09,9.72,9.72,0,0,1-2.17,2.3,14,14,0,0,1-2.56,1.57,11.79,11.79,0,0,1-2.69.89,13.3,13.3,0,0,1-2.57.27h-2.63v11.8h-6.57V95.66h-2.6a13.12,13.12,0,0,1-2.56-.27,11.94,11.94,0,0,1-2.71-.89,13.73,13.73,0,0,1-2.57-1.57,10.1,10.1,0,0,1-2.16-2.3,10.9,10.9,0,0,1-1.5-3.1,12.79,12.79,0,0,1-.57-4h0v-12h6.52v12a6.09,6.09,0,0,0,.4,2.28,5,5,0,0,0,1.12,1.75,4.89,4.89,0,0,0,1.76,1.11,6.57,6.57,0,0,0,2.32.39h11.75c.62-.1,1.25-.23,1.9-.39a4.73,4.73,0,0,0,1.78-.81,4.35,4.35,0,0,0,1.34-1.6,6,6,0,0,0,.52-2.73h0v-12Z"/><path class="cls-1" d="M220.63,139.26c0,2.59-1.78,5.48-6.54,5.48-2.83,0-5.77-1.27-6.67-4.19l2.62-.82c.26,1.22,1.64,2.52,4.1,2.52,2,0,3.79-.88,3.79-2.78,0-2.52-2.25-2.62-5.19-3.34-3.73-.9-4.58-2.85-4.58-5.26,0-3.13,2.67-5.32,6.11-5.32a5.58,5.58,0,0,1,5.62,4l-2.6.64A3.16,3.16,0,0,0,214,128a2.91,2.91,0,0,0-3.2,2.86c0,2.35,2.25,2.72,4.6,3.25C219,135,220.63,136.27,220.63,139.26Z"/><path class="cls-1" d="M246.27,135.13a9.41,9.41,0,1,1-9.4-9.58A9.26,9.26,0,0,1,246.27,135.13Zm-2.68,0c0-3.6-2.41-7.12-6.72-7.12s-6.72,3.52-6.72,7.12,2.41,7.12,6.72,7.12S243.59,138.73,243.59,135.13Z"/><path class="cls-1" d="M264.42,142v2.41H254.15V125.86h2.65V142Z"/><path class="cls-1" d="M286,125.86v11.49c0,4.82-2.55,7.39-7,7.39s-7.05-2.57-7.05-7.39V125.86h2.65v11c0,4,1.72,5.34,4.4,5.34s4.36-1.38,4.36-5.34v-11Z"/><path class="cls-1" d="M308.42,139.84l2.23,1.45a9.32,9.32,0,0,1-7.34,3.45l-.5,1c1.62-.15,3.07.56,3.07,2.47a2.94,2.94,0,0,1-3.25,2.88,4.76,4.76,0,0,1-2.31-.58l.82-1.48a2.7,2.7,0,0,0,1.33.34c1.06,0,1.69-.53,1.69-1.35s-.47-1.19-1.32-1.19a2.74,2.74,0,0,0-1.17.29l-.61-.82.83-1.64A9.59,9.59,0,1,1,310.65,129l-2.23,1.43a6.36,6.36,0,0,0-5.13-2.41c-4.34,0-6.72,3.52-6.72,7.12s2.38,7.12,6.72,7.12A6.36,6.36,0,0,0,308.42,139.84Z"/><path class="cls-1" d="M335.63,135.13a9.41,9.41,0,1,1-9.4-9.58A9.26,9.26,0,0,1,335.63,135.13Zm-2.68,0c0-3.6-2.41-7.12-6.72-7.12s-6.72,3.52-6.72,7.12,2.41,7.12,6.72,7.12S333,138.73,333,135.13Zm-2.72-13.87c-.21,1.59-1,2.41-2.25,2.41s-2.22-.88-3.23-.88c-.66,0-.9.61-.95,1.09l-1.59-.29c.26-1.64,1-2.41,2.27-2.41s2.17.87,3.21.87c.76,0,.9-.63.95-1.08Z"/><path class="cls-1" d="M354,142v2.41H343.51V125.86h10.21v2.41h-7.54v5.32h7V136h-7v6Z"/><path class="cls-1" d="M374.15,139.26c0,2.59-1.77,5.48-6.53,5.48-2.84,0-5.78-1.27-6.67-4.19l2.61-.82c.27,1.22,1.65,2.52,4.11,2.52,2,0,3.78-.88,3.78-2.78,0-2.52-2.25-2.62-5.18-3.34-3.74-.9-4.58-2.85-4.58-5.26,0-3.13,2.67-5.32,6.11-5.32a5.57,5.57,0,0,1,5.61,4l-2.59.64a3.16,3.16,0,0,0-3.28-2.17,2.92,2.92,0,0,0-3.21,2.86c0,2.35,2.25,2.72,4.61,3.25C372.54,135,374.15,136.27,374.15,139.26Z"/><path class="cls-1" d="M406.22,131.93c0,3.38-2.51,6-6.69,6h-3.26v6.43h-2.65V125.86h5.91C403.71,125.86,406.22,128.54,406.22,131.93Zm-2.72,0c0-2.17-1.48-3.66-4-3.66h-3.26v7.28h3.26C402,135.55,403.5,134.1,403.5,131.93Z"/><path class="cls-1" d="M424.24,144.39l-3.84-7.17a5.16,5.16,0,0,1-.71,0h-3.07v7.14H414V125.86h5.72c4.24,0,6.67,2.49,6.67,5.7a5.33,5.33,0,0,1-3.34,5.05l4.4,7.78Zm-4.55-9.55c2.57,0,3.94-1.3,3.94-3.28s-1.37-3.29-3.94-3.29h-3.07v6.57Z"/><path class="cls-1" d="M445.12,142v2.41H434.64V125.86h10.22v2.41h-7.55v5.32h7V136h-7v6Z"/><path class="cls-1" d="M472.14,125.86v18.53h-2.65V130.76l-6.38,9.4h-.95l-6.38-9.4v13.63h-2.64V125.86h2.64l6.86,10.19,6.85-10.19Z"/><path class="cls-1" d="M483.33,125.86v18.53h-2.65V125.86Z"/><path class="cls-1" d="M506,125.86v11.49c0,4.82-2.55,7.39-7,7.39s-7.05-2.57-7.05-7.39V125.86h2.65v11c0,4,1.72,5.34,4.4,5.34s4.36-1.38,4.36-5.34v-11Z"/><path class="cls-1" d="M533.5,125.86v18.53h-2.64V130.76l-6.38,9.4h-1l-6.37-9.4v13.63H514.5V125.86h2.65L524,136.05l6.86-10.19Z"/><rect class="cls-1" x="171.05" y="133.37" width="26.73" height="3.42" rx="0.17"/><rect class="cls-1" x="544.78" y="133.37" width="26.73" height="3.42" rx="0.17"/></svg>