<?xml version="1.0" encoding="utf-8"?>
<!-- Generator: Adobe Illustrator 25.0.0, SVG Export Plug-In . SVG Version: 6.00 Build 0)  -->
<svg version="1.1" id="Camada_1" xmlns="http://www.w3.org/2000/svg" xmlns:xlink="http://www.w3.org/1999/xlink" x="0px" y="0px"
	 viewBox="0 0 1575.47 590.12" style="enable-background:new 0 0 1575.47 590.12;" xml:space="preserve">
<style type="text/css">
	.st0{fill:#E9521E;}
	.st1{fill:#FFFFFF;}
	.st2{fill:#3C3C3B;}
	.st3{fill:#FEFEFE;}
	.st4{fill:#58B141;}
	.st5{fill:#57B141;}
</style>
<path class="st0" d="M1381.42,359.27H86.42c-16.76,0-30.35-13.59-30.35-30.35V185.96c0-16.76,13.59-30.35,30.35-30.35h1295.01
	c16.76,0,30.35,13.59,30.35,30.35v142.96C1411.78,345.68,1398.19,359.27,1381.42,359.27z"/>
<g>
	<path class="st3" d="M1171.85,441.27c4.2-14.94,8.27-29.42,12.34-43.89c3.86-13.76,7.65-27.53,11.64-41.26
		c0.7-2.42,0.68-4.33-0.58-6.57c-14.83-26.31-22.52-54.59-22.86-84.8c-0.43-38.61,10.28-73.89,32.56-105.44
		c22.38-31.7,52.08-53.93,88.82-66.45c27.92-9.52,56.57-11.99,85.68-7.05c50.32,8.54,89.99,34.19,119.07,75.91
		c15.73,22.57,25.34,47.78,29.07,75.12c6.12,44.89-3.06,86.56-28.22,124.11c-25.55,38.15-60.94,63.28-105.7,74.29
		c-43.57,10.71-85.51,5.62-125.46-14.94c-3.13-1.61-5.85-2.18-9.41-1.24c-28.12,7.4-56.31,14.55-84.47,21.77
		C1173.72,440.98,1173.1,441.05,1171.85,441.27z M1350.85,113.51c-8.84,0.09-17.63,0.83-26.32,2.45
		c-35.38,6.6-64.72,23.8-87.78,51.3c-19.79,23.6-31.08,51.08-33.71,81.73c-2.94,34.29,5.17,66.06,24.05,94.93
		c1.81,2.77,2.17,5.16,1.26,8.3c-4.09,14.04-7.84,28.17-11.99,42.19c-1.15,3.88-0.47,4.67,3.39,3.64
		c14.45-3.85,28.96-7.47,43.4-11.34c3.39-0.91,6.09-0.65,9.26,1.27c38.43,23.2,79.45,28.8,122.32,15.73
		c72.84-22.2,116.59-96.63,101.65-171.59C1482.79,163.93,1420.94,113.51,1350.85,113.51z"/>
	<path class="st4" d="M1350.85,113.51c70.09,0,131.95,50.42,145.54,118.62c14.94,74.97-28.82,149.4-101.65,171.59
		c-42.87,13.06-83.89,7.46-122.32-15.73c-3.17-1.92-5.87-2.18-9.26-1.27c-14.44,3.87-28.95,7.49-43.4,11.34
		c-3.86,1.03-4.54,0.24-3.39-3.64c4.14-14.02,7.9-28.16,11.99-42.19c0.91-3.13,0.55-5.53-1.26-8.3
		c-18.88-28.87-26.99-60.64-24.05-94.93c2.63-30.66,13.91-58.13,33.71-81.73c23.06-27.5,52.39-44.7,87.78-51.3
		C1333.21,114.35,1342,113.6,1350.85,113.51z M1292.54,178.36c-5.15-0.52-9.93,0.12-14.01,3.77
		c-15.38,13.76-20.96,30.58-16.37,50.83c3.96,17.5,13.17,32.16,24.09,45.98c24.9,31.52,55.77,54.29,94.64,65.95
		c25.35,7.6,55.7-2.11,60.55-34.86c0.7-4.73-0.07-7.9-4.85-10.01c-11.86-5.23-23.6-10.72-35.29-16.31
		c-4.61-2.21-7.77-1.18-10.68,2.85c-4.09,5.66-8.51,11.09-12.8,16.62c-1.74,2.24-3.67,3.79-6.81,2.58
		c-27.56-10.57-49.14-28.17-63.73-54.03c-1.76-3.12-1.11-5.61,1.13-8.12c3.99-4.47,7.81-9.1,11.82-13.56
		c2.76-3.07,3.3-6.23,1.63-10.07c-5.18-11.88-10.22-23.82-15.24-35.77c-1.44-3.43-3.85-5.3-7.57-5.5
		C1296.87,178.58,1294.71,178.47,1292.54,178.36z"/>
	<path class="st3" d="M1292.54,178.36c2.16,0.11,4.32,0.22,6.49,0.34c3.71,0.2,6.12,2.07,7.57,5.5
		c5.02,11.95,10.06,23.89,15.24,35.77c1.67,3.84,1.13,7-1.63,10.07c-4.01,4.46-7.83,9.08-11.82,13.56c-2.25,2.51-2.89,5-1.13,8.12
		c14.6,25.87,36.17,43.47,63.73,54.03c3.14,1.2,5.07-0.35,6.81-2.58c4.29-5.52,8.71-10.95,12.8-16.62
		c2.91-4.03,6.08-5.06,10.68-2.85c11.69,5.6,23.43,11.09,35.29,16.31c4.78,2.11,5.55,5.28,4.85,10.01
		c-4.85,32.75-35.2,42.46-60.55,34.86c-38.87-11.65-69.74-34.43-94.64-65.95c-10.91-13.82-20.13-28.48-24.09-45.98
		c-4.58-20.25,0.99-37.07,16.37-50.83C1282.61,178.48,1287.39,177.84,1292.54,178.36z"/>
	<rect x="1331.23" y="545.65" class="st5" width="4.88" height="4.88"/>
</g>
<path class="st1" d="M129,235.1v16.12h22.83v11.74H129v25.63h-12.67v-65.23h38.21v11.74H129z"/>
<path class="st1" d="M199.16,275.63h-26.84l-4.38,12.96h-13.42L178,223.36h15.47l23.48,65.23h-13.42L199.16,275.63z M195.33,264.36
	l-9.6-28.24l-9.6,28.24H195.33z"/>
<path class="st1" d="M267.8,270.79l10.53,6.9c-5.87,7.46-15,12.02-25.81,12.11l-1.59,3.17c5.68,0.37,10.25,2.98,10.25,9.32
	c0,5.68-4.66,9.88-11.28,9.88c-3.91,0-6.99-0.84-9.41-2.42l3.26-5.87c1.03,0.65,2.52,1.3,4.85,1.3c3.08,0,4.94-1.58,4.94-3.91
	c0-3.17-2.7-3.54-4.29-3.54c-1.31,0-2.33,0.28-3.08,0.65l-2.42-3.17l2.98-5.87c-16.31-2.61-27.49-16.12-27.49-33.37
	c0-19.1,13.89-33.74,33.18-33.74c10.81,0,19.94,4.57,25.91,12.12l-10.53,6.9c-3.36-4.19-8.58-6.99-15.38-6.99
	c-13.51,0-20.5,10.91-20.5,21.71c0,10.91,6.99,21.81,20.5,21.81C259.23,277.78,264.45,274.99,267.8,270.79z"/>
<path class="st1" d="M327.13,275.63h-26.84l-4.38,12.96h-13.42l23.49-65.23h15.47l23.48,65.23h-13.42L327.13,275.63z M323.31,264.36
	l-9.6-28.24l-9.6,28.24H323.31z"/>
<path class="st1" d="M429.4,223.36v41.19c0,15.38-9.32,25.25-26.37,25.25s-26.47-9.88-26.47-25.25v-41.19h12.67v39.51
	c0,10.91,6.62,14.91,13.79,14.91c7.08,0,13.7-4.01,13.7-14.91v-39.51H429.4z"/>
<path class="st1" d="M509.99,223.36v65.23h-12.68v-43.24l-19.48,31.59h-4.19l-19.57-31.59v43.24h-12.58v-65.23h13.42l20.78,33.55
	l20.78-33.55H509.99z"/>
<path class="st1" d="M610.29,255.97c0,19.1-13.88,33.83-33.17,33.83c-19.29,0-33.17-14.73-33.17-33.83s13.88-33.74,33.17-33.74
	C596.41,222.24,610.29,236.87,610.29,255.97z M597.62,255.97c0-10.81-6.99-21.71-20.5-21.71s-20.5,10.91-20.5,21.71
	c0,10.91,6.99,21.81,20.5,21.81S597.62,266.88,597.62,255.97z"/>
<path class="st1" d="M657.04,288.59l-13.42-23.48c-0.28,0-0.65,0-1.02,0h-9.97v23.48h-12.58v-65.23h22.56
	c14.63,0,24.32,8.95,24.32,21.34c0,8.2-4.38,14.54-11.46,17.8l16.03,26.09H657.04z M632.62,254.2h9.97c6.52,0,11.36-2.98,11.36-9.51
	c0-5.87-4.28-9.6-11.36-9.6h-9.97V254.2z"/>
<path class="st1" d="M723.27,270.79l10.53,6.9c-5.87,7.46-15.01,12.02-25.82,12.11l-1.58,3.17c5.68,0.37,10.25,2.98,10.25,9.32
	c0,5.68-4.66,9.88-11.27,9.88c-3.92,0-6.99-0.84-9.41-2.42l3.26-5.87c1.03,0.65,2.51,1.3,4.85,1.3c3.07,0,4.94-1.58,4.94-3.91
	c0-3.17-2.7-3.54-4.29-3.54c-1.3,0-2.33,0.28-3.07,0.65l-2.42-3.17l2.98-5.87c-16.31-2.61-27.49-16.12-27.49-33.37
	c0-19.1,13.88-33.74,33.17-33.74c10.81,0,19.95,4.57,25.91,12.12l-10.53,6.9c-3.36-4.19-8.58-6.99-15.38-6.99
	c-13.51,0-20.5,10.91-20.5,21.71c0,10.91,6.99,21.81,20.5,21.81C714.69,277.78,719.91,274.99,723.27,270.79z"/>
<path class="st1" d="M782.59,275.63h-26.84l-4.38,12.96h-13.42l23.49-65.23h15.47l23.48,65.23h-13.42L782.59,275.63z M778.77,264.36
	l-9.6-28.24l-9.6,28.24H778.77z"/>
<path class="st1" d="M876.31,223.36v65.23h-12.68v-43.24l-19.48,31.59h-4.19l-19.57-31.59v43.24h-12.58v-65.23h13.42l20.78,33.55
	l20.78-33.55H876.31z"/>
<path class="st1" d="M926.87,276.85v11.74h-38.49v-65.23h37.65v11.74h-25.07v14.73h22.92v11.74h-22.92v15.28H926.87z"/>
<path class="st1" d="M990.12,223.36v65.23h-11.46l-28.89-43.15v43.15h-12.68v-65.23h11.47l28.89,43.15v-43.15H990.12z"/>
<path class="st1" d="M1043.39,235.1h-15.65v53.49h-12.68V235.1H999.4v-11.74h43.99V235.1z"/>
<path class="st1" d="M1113.91,255.97c0,19.1-13.88,33.83-33.17,33.83s-33.17-14.73-33.17-33.83s13.88-33.74,33.17-33.74
	S1113.91,236.87,1113.91,255.97z M1101.24,255.97c0-10.81-6.99-21.71-20.5-21.71c-13.51,0-20.5,10.91-20.5,21.71
	c0,10.91,6.99,21.81,20.5,21.81C1094.25,277.78,1101.24,266.88,1101.24,255.97z"/>
</svg>
