<svg id="Camada_1" data-name="Camada 1" xmlns="http://www.w3.org/2000/svg" viewBox="0 0 189.18 193.41"><defs><style>.cls-1{fill:#fff;}</style></defs><path class="cls-1" d="M92.56,43.12h3.82a2.41,2.41,0,0,0,.5.21A13.14,13.14,0,0,1,107.65,58c-.09.64.18.83.67,1.05q6.51,3,13,6a1.11,1.11,0,0,0,1.39-.19A16.9,16.9,0,0,1,137,60.86c7,1.17,11.85,5.25,14.09,12s.68,12.68-4.07,17.84a17.46,17.46,0,0,1-8.21,4.86c0,4.39,0,8.73,0,13.07a1.51,1.51,0,0,0,1.09,1.63,13.21,13.21,0,1,1-13.08,22.85c-.45-.31-.81-.67-1.49-.35-4.11,2-8.25,3.85-12.36,5.81a1.42,1.42,0,0,0-.61,1c-.13,1-.09,2.09-.2,3.12A17.69,17.69,0,0,1,76.87,140a1.49,1.49,0,0,0-1-1.67c-4-1.8-7.93-3.65-11.88-5.51a1.2,1.2,0,0,0-1.41.1A13.29,13.29,0,0,1,54,135.4c-6.31-.18-12.21-6-12.39-12.26-.18-6.08,2.48-10.47,8-13.09a1.07,1.07,0,0,0,.76-1.16c0-1.57,0-3.14,0-4.71V95.56l-.81-.3A17.56,17.56,0,0,1,37.71,83c-.23-.78-.4-1.57-.6-2.35V76.12a2.33,2.33,0,0,0,.21-.49C38.49,69,42.2,64.26,48.45,61.84s12.39-1.38,17.74,2.93a1.49,1.49,0,0,0,1.86.22c4.11-1.95,8.26-3.83,12.38-5.74.37-.17.71-.37,1-.53-.66-5.77,1.18-10.37,6-13.5A28.64,28.64,0,0,1,92.56,43.12Zm16.62,87.13c.27-.11.47-.18.67-.28,3.59-1.66,7.18-3.31,10.75-5a1.25,1.25,0,0,0,.48-1,13.29,13.29,0,0,1,8-13.87c.66-.28.74-.71.74-1.31,0-4,0-8,0-12a1.38,1.38,0,0,0-1.19-1.61,17.51,17.51,0,0,1-12-15.77,63.18,63.18,0,0,1,.39-6.31c-4.37-2-8.9-4.13-13.46-6.18a1.59,1.59,0,0,0-1.27.23c-5,3.33-10.47,3.36-15.41,0A1.42,1.42,0,0,0,85.24,67Q79,69.88,72.74,72.73c-.69.32-.89.61-.69,1.43A17.46,17.46,0,0,1,65,92.85a53.89,53.89,0,0,1-5.62,3c0,4.1,0,8.4,0,12.7a1.59,1.59,0,0,0,1.12,1.73A13.21,13.21,0,0,1,68,124a1.06,1.06,0,0,0,.36.86c3.83,1.83,7.69,3.61,11.52,5.4A17.91,17.91,0,0,1,109.18,130.25Zm33.76-51.87a8.7,8.7,0,1,0-8.72,8.67A8.65,8.65,0,0,0,142.94,78.38ZM85.82,140.31a8.76,8.76,0,0,0,8.69,8.74,8.71,8.71,0,1,0-8.69-8.74ZM54.87,69.61a8.78,8.78,0,0,0-8.75,8.7,8.71,8.71,0,1,0,8.75-8.7Zm43.9-13.22a4.23,4.23,0,1,0-4.24,4.21A4.3,4.3,0,0,0,98.77,56.39Zm-43.89,70a4.23,4.23,0,1,0-4.3-4.15A4.3,4.3,0,0,0,54.88,126.41Zm83.58-4.27a4.21,4.21,0,1,0-4.14,4.27A4.23,4.23,0,0,0,138.46,122.14Z"/></svg>