<svg id="Camada_1" data-name="Camada 1" xmlns="http://www.w3.org/2000/svg" viewBox="0 0 189.18 193.41"><defs><style>.cls-1{fill:#fff;}</style></defs><path class="cls-1" d="M163.28,133c-.61.39-.56,1.09-.79,1.65a11.45,11.45,0,0,1-22-2.81c-.21-1.57-.16-3.09,1.37-4.06,2.08-1.32,4.36.15,4.65,3a5.34,5.34,0,1,0,5.8-5.74c-2.69-.3-3.5-1.2-3.53-3.9,0-.38,0-.76,0-1.14-.09-1.32.55-3-.27-3.86s-2.4-.19-3.64-.29a2.89,2.89,0,0,1-3-3.2q0-7.32,0-14.64c0-2,1.1-3,3.07-3.08,3.82-.16,3.82-.16,3.82-4.06,0-4.24,0-4.24-4.18-4.24-13.69,0-27.38,0-41.07,0-1.52,0-1.87.43-1.87,1.9q.08,34.23,0,68.44c0,3.57-.73,4.29-4.36,4.29H64.1c-2.93,0-3.82-.91-3.82-3.88q0-34.32,0-68.63c0-1.59-.25-2.26-2-2.12-2.46.18-4.94,0-7.41,0s-3.79-1-3.8-3,1.36-3.05,3.76-3.05h57c13,0,26.11-.06,39.16.06,2.12,0,1.79-1.09,1.8-2.34S149.09,76,147,76q-56.66.11-113.32,0c-1.62,0-2.09.47-2,2s0,3.42,0,5.13-.64,3-2.37,3.39a2.79,2.79,0,0,1-3.5-2.14l0-12.29c.3-1.16,1.27-1.67,2.19-2.24q22.29-13.72,44.6-27.43a8.32,8.32,0,0,0,3.46-3.82c1-2.25,1.67-4.78,3.81-6.39h1.53a4.84,4.84,0,0,1,2.74,2.88c.46,1.24,1.23,2.36,1.66,3.61a5.06,5.06,0,0,0,3.1,3Q111.81,51.82,134.56,62c2.19,1,3,2.59,2.2,4.3s-2.49,2.22-4.69,1.25c-5.83-2.59-11.64-5.22-17.47-7.8q-11.52-5.1-23.07-10.15c-.12-.17-.27-.28-.42-.05,0,0,.13.17.21.26a12.69,12.69,0,0,0,.51,1.42c2.63,5.6,5.33,11.18,7.89,16.82A2.75,2.75,0,0,0,102.66,70c15.9-.07,31.8,0,47.7,0,3.69,0,4.55.88,4.55,4.62V91.45c0,3.4,0,3.4,3.48,3.45,2.48,0,3.41,1,3.42,3.46,0,4-.07,8,0,12,.11,4.29-.05,5.8-5.46,5.51-.53,0-1.49-.37-1.42.67s-.73,2.46.52,2.92c4.14,1.55,6.42,4.64,7.8,8.62ZM88.63,87l-.12-.37c-7.07,0-14.14,0-21.21,0-.91,0-1,.43-1,1.16,0,5.45,0,10.89,0,16.33,0,1,.27,1.32,1.28,1.32q13.4,0,26.77,0c1.19,0,1.32-.53,1.32-1.49,0-4.24,0-8.49,0-12.73,0-.45.24-1-.31-1.42-.68.46-1.36.9-2,1.37Q86.61,95.81,80,100.51a4.3,4.3,0,0,1-2.57,1.09,2.89,2.89,0,0,1-2.85-2.1,3,3,0,0,1,1.38-3.59Zm-20.52-17c8.22,0,16.13,0,24,0,1.52,0,1.68-.34,1-1.66C89.71,61,86.29,53.68,82.82,46.37a14.54,14.54,0,0,0-1.92-3.61Zm-27.85-.4.08.4c6.75,0,13.51,0,20.26,0,.94,0,1.13-.69,1.42-1.3q3.72-7.89,7.41-15.79c.18-.37.54-.74,0-1.32ZM88.6,136.75l-.1-.39H67.28c-.58,0-1,.11-1,.82,0,5,0,9.93,0,15.22Zm7-22.39-22.73,16h21.5c.66,0,1.25,0,1.24-.94C95.62,124.54,95.64,119.69,95.64,114.36ZM88.36,112c-.15-.29-.17-.39-.2-.39l-20.9-.1c-.6,0-1,.18-1,.85,0,4.91,0,9.82,0,15.11Zm-14.8,42.7.18.45h20.7c.71,0,1.21-.09,1.21-1,0-4.85,0-9.7,0-14.95Zm82.33-49.46c0-.44,0-.88,0-1.32-.06-3.62.5-3.13-3.08-3.11-1.61,0-3.79-.78-4.67.42s-.28,3.15-.29,4.79c0,3.73,0,3.73,3.55,3.73C155.89,109.79,155.89,109.79,155.89,105.28Z"/></svg>